<svg width="13" height="23" viewBox="0 0 13 23" fill="none" xmlns="http://www.w3.org/2000/svg">
<path d="M0.556818 11.6364C0.556818 9.48864 0.835227 7.5142 1.39205 5.71307C1.95455 3.90625 2.75568 2.24432 3.79545 0.727272H5.56818C5.15909 1.28977 4.77557 1.98295 4.41761 2.80682C4.06534 3.625 3.75568 4.52557 3.48864 5.50852C3.22159 6.4858 3.01136 7.49716 2.85795 8.54261C2.71023 9.58807 2.63636 10.6193 2.63636 11.6364C2.63636 12.9886 2.76705 14.3608 3.02841 15.7528C3.28977 17.1449 3.64205 18.4375 4.08523 19.6307C4.52841 20.8239 5.02273 21.7955 5.56818 22.5455H3.79545C2.75568 21.0284 1.95455 19.3693 1.39205 17.5682C0.835227 15.7614 0.556818 13.7841 0.556818 11.6364ZM12.8317 11.6364C12.8317 13.7841 12.5504 15.7614 11.9879 17.5682C11.4311 19.3693 10.6328 21.0284 9.59304 22.5455H7.82031C8.2294 21.983 8.61009 21.2898 8.96236 20.4659C9.32031 19.6477 9.63281 18.75 9.89986 17.7727C10.1669 16.7898 10.3743 15.7756 10.522 14.7301C10.6754 13.679 10.7521 12.6477 10.7521 11.6364C10.7521 10.2841 10.6214 8.91193 10.3601 7.51989C10.0987 6.12784 9.74645 4.83523 9.30327 3.64204C8.86009 2.44886 8.36577 1.47727 7.82031 0.727272H9.59304C10.6328 2.24432 11.4311 3.90625 11.9879 5.71307C12.5504 7.5142 12.8317 9.48864 12.8317 11.6364Z" fill="#66FF7F"/>
</svg>
